<svg id="Layer_1" xmlns="http://www.w3.org/2000/svg" viewBox="0 0 92 92"><style>.st0{fill-rule:evenodd;clip-rule:evenodd}.st0,.st1{fill:#c3cece}</style><path class="st0" d="M46 0C20.6 0 0 20.6 0 46s20.6 46 46 46 46-20.6 46-46S71.4 0 46 0zm0 90C21.7 90 2 70.3 2 46S21.7 2 46 2s44 19.7 44 44-19.7 44-44 44z"/><path class="st1" d="M65 18.5H25v55h42v-55h-2zm0 53H27v-51h5.7v12.2c2.3-2.3 4.6-4.7 7-7.1l7 7.1V20.5H65v51zM32.7 41.4h26.5v-2H32.7v2zm0 5.8h26.5v-2H32.7v2zm0 5.9h26.5v-2H32.7v2zm0 6.7H46v-2H32.7v2zm17.5 5.7h9v-2h-9v2z"/></svg>