<svg id="Layer_1" xmlns="http://www.w3.org/2000/svg" viewBox="168.5 -33.7 112.8 49.5"><style>.st0{fill:url(#SVGID_1_)}.st1{fill:gray}</style><linearGradient id="SVGID_1_" gradientUnits="userSpaceOnUse" x1="191.5" y1="10.262" x2="191.5" y2="59.764" gradientTransform="matrix(1 0 0 -1 0 26.05)"><stop offset="0" stop-color="#58b947"/><stop offset="1" stop-color="#8ac640"/></linearGradient><path class="st0" d="M202.5-33.2v5h-5v-5h-12v5h-5v-5h-12v26c0 12.7 10.3 23 23 23s23-10.3 23-23v-26h-12zm-17 45.1l-.1-27.2h7.8c4.3 0 6.4 3.5 6.4 6.5 0 3.1-2.1 6.1-6.4 6.1h-5.9v2.4l10.4 12.1c-1.9.6-4 1-6.2 1-2.1 0-4.1-.3-6-.9zm26-19.3c0 7.3-3.9 13.8-9.7 17.3l-6.3-8c6-1 9.1-5.8 9.1-10.7 0-5.6-3.5-11.4-11.1-11.4h-13V9.5c-5.4-3.6-9-9.8-9-16.8v-22.9h6v5h11v-5h6v5h11v-5h6v22.8z"/><path d="M225-27.1h2c1.5 0 2.2-1.1 2.2-2.1s-.7-2.3-2.2-2.3h-2.7V-21h-1.7v-12.2h4.4c2.6 0 4 2.1 4 4 0 1.7-1.1 3.4-3.1 3.7l3.8 4.6h-2.3l-4.4-5.3v-.9zM234.8-32.7c0 1.3-2.1 1.3-2.1 0s2.1-1.3 2.1 0zm-.2 2.3h-1.7v9.5h1.7v-9.5zM240.8-26.4c1.8.1 3.8.7 3.8 2.8 0 2.2-2.2 2.8-3.9 2.8-1.9 0-3.8-.8-3.9-3h1.7c.1 1.1 1.1 1.6 2.3 1.6.9 0 2.1-.3 2.1-1.4s-1.5-1.2-2.3-1.3c-1.7-.1-3.7-.6-3.7-2.7 0-2.2 1.9-2.9 3.8-2.9s3.5.8 3.6 2.8h-1.7c-.1-.8-1-1.2-2-1.2s-2 .4-2 1.4c0 1.1 1.4 1.1 2.2 1.1zM248.3-25.8l1.4-1.7 2.6-2.8h2l-3.8 4 4 5.2v.2h-2l-3.2-4.2-1.2 1.3v2.9h-1.7v-12.2h1.7v7.3h.2z"/><g><path d="M224.3-6.6h-1.8v-12.2h1.4l4 5.9 4-5.9h1.4v12.2h-1.7v-8.6l-3.2 4.7h-1l-3.2-4.7v8.6h.1zM246-16v9.4h-1.7v-1.3c-.7 1-2.2 1.4-3.4 1.4-3.3 0-5.1-2.3-5.1-4.9 0-2.5 1.8-4.8 5-4.8 1.2 0 2.6.3 3.4 1.4v-1.3h1.8v.1zm-5.2 1.3c-2 0-3.3 1.5-3.3 3.3s1.3 3.4 3.4 3.4c1.5 0 3.3-1.1 3.3-3.4.1-2.2-1.8-3.3-3.4-3.3zM250.1-16v1.1c.9-1.3 2.3-1.6 3.8-1.2v1.5c-1.9-.6-3.8.8-3.8 2.9v5.1h-1.7V-16h1.7zM257.5-11.5l1.4-1.7 2.6-2.8h2l-3.8 4 4 5.2v.2h-2l-3.2-4.2-1.2 1.3v2.9h-1.7v-12.2h1.7v7.3h.2zM274.2-10.9h-8c0 1.8 1.8 3 3.2 3 1.2 0 2.2-.5 2.8-1.6h1.8c-.7 2-2.6 3.1-4.6 3.1-2.4 0-4.8-1.6-4.8-4.9s2.4-4.8 4.9-4.8c2.3 0 4.6 1.5 4.8 4.4-.1.3-.1.6-.1.8zm-1.8-1.4c-.3-1.7-1.7-2.3-3-2.3-1.4 0-2.8.7-3.1 2.3h6.1zM278.7-18.1v2.1h2.1v1.4h-2.1v5.3c0 1.4.9 1.5 2.1 1.3v1.4c-2.3.2-3.8-.3-3.8-2.8v-5.3h-1.4v-1.4h1.4v-1.8l1.7-.2z"/></g><g><path class="st1" d="M225 3.4c-.8 0-1.4-.2-1.8-.7-.4-.5-.6-1.1-.6-2s.2-1.6.7-2.1c.4-.5 1.1-.7 1.8-.7.5 0 .9.1 1.3.2l-.1.4c-.5-.2-.9-.2-1.2-.2-.7 0-1.1.2-1.5.6-.3.4-.5 1-.5 1.7s.2 1.3.5 1.7c.3.4.8.6 1.4.6.5 0 .9-.1 1.3-.3V3c-.3.3-.7.4-1.3.4zM231-1.6h-1.8v4.9h-.5v-4.9h-1.8V-2h4.1v.4zM234.4 3.4c-.8 0-1.4-.3-1.8-.9v3.2h-.5V-2h.4l.1.8c.4-.6.9-.9 1.7-.9.7 0 1.3.2 1.6.7.4.5.6 1.2.6 2.1 0 .9-.2 1.5-.6 2-.3.5-.8.7-1.5.7zm0-.4c.5 0 1-.2 1.3-.6.3-.4.4-1 .4-1.7 0-1.6-.6-2.3-1.7-2.3-.6 0-1.1.2-1.4.5s-.4.9-.4 1.7v.2c0 .8.1 1.4.4 1.8.3.2.7.4 1.4.4zM241.3 3.3l-.1-.8c-.3.3-.5.6-.8.7-.3.1-.6.2-1 .2-.5 0-.9-.1-1.2-.4-.3-.3-.4-.6-.4-1.1s.2-.9.6-1.2 1.1-.4 1.9-.5h1v-.4c0-.5-.1-.9-.3-1.1-.2-.2-.5-.4-1-.4s-1 .1-1.5.4l-.2-.4c.6-.3 1.2-.4 1.7-.4.6 0 1 .2 1.3.5.3.3.4.8.4 1.4v3.5h-.4zm-2-.3c.6 0 1-.2 1.3-.5.3-.3.5-.8.5-1.3V.7h-.9c-.7 0-1.3.2-1.6.3-.3.2-.5.5-.5.9 0 .3.1.6.3.8.3.2.6.3.9.3zM244.7.6L242.8-2h.6L245 .2l1.6-2.2h.5L245.3.6l2 2.7h-.6L245 .9l-1.7 2.4h-.5l1.9-2.7zM252.7.6c0 .9-.2 1.5-.6 2s-1 .7-1.7.7c-.5 0-.9-.1-1.2-.3-.3-.2-.6-.5-.8-1-.2-.5-.3-.9-.3-1.5 0-.9.2-1.5.6-2 .4-.5 1-.7 1.7-.7s1.3.2 1.7.7c.4.6.6 1.3.6 2.1zm-4.2 0c0 .7.2 1.3.5 1.7.3.4.8.6 1.4.6.6 0 1-.2 1.4-.6.3-.4.5-1 .5-1.7s-.2-1.3-.5-1.7c-.3-.4-.8-.6-1.4-.6-.6 0-1 .2-1.4.6-.3.4-.5 1-.5 1.7zM258.3-.7c0 .3-.1.6-.2.8-.2.2-.4.3-.8.4.4 0 .7.2.9.4.2.2.3.5.3.8 0 .5-.2.9-.5 1.2-.3.3-.8.4-1.5.4h-2.2V-2h2.3c.6 0 1.1.1 1.4.3.1.2.3.6.3 1zm-.5 0c0-.3-.1-.5-.3-.7-.2-.1-.6-.2-1-.2h-1.7V.2h1.7c.5 0 .8-.1 1.1-.2.3-.1.2-.4.2-.7zm.1 2.4c0-.7-.5-1-1.5-1h-1.7v2.1h1.8c.9 0 1.4-.3 1.4-1.1zM263.1 3.3l-.1-.8c-.3.3-.5.6-.8.7-.3.1-.6.2-1 .2-.5 0-.9-.1-1.2-.4-.3-.3-.4-.6-.4-1.1s.2-.9.6-1.2c.4-.3 1.1-.4 1.9-.5h1v-.4c0-.5-.1-.9-.3-1.1-.2-.2-.5-.4-1-.4s-1 .1-1.5.4l-.2-.4c.6-.3 1.2-.4 1.7-.4.6 0 1 .2 1.3.5.3.3.4.8.4 1.4v3.5h-.4zm-2-.3c.6 0 1-.2 1.3-.5.3-.3.5-.8.5-1.3V.7h-.9c-.7 0-1.3.2-1.6.3-.3.2-.5.5-.5.9 0 .3.1.6.3.8.3.2.6.3.9.3zM265.6-2V.3h3.4V-2h.5v5.3h-.5V.7h-3.4v2.6h-.5V-2h.5zM271.7-2v4.8l3.1-4.8h.6v5.3h-.5v-4.8l-3.1 4.8h-.6V-2h.5zM279.4 3.4c-.8 0-1.4-.2-1.8-.7s-.6-1.1-.6-2c0-.8.2-1.5.6-2 .4-.5 1-.8 1.7-.8.6 0 1.1.2 1.5.7s.5 1 .5 1.8v.4h-3.8c0 .7.2 1.3.5 1.7.3.4.8.6 1.4.6.3 0 .6 0 .8-.1.2 0 .5-.1.9-.3v.4c-.3.1-.6.2-.8.3h-.9zm-.1-5.1c-.5 0-.9.2-1.2.5-.3.3-.5.8-.5 1.5h3.3c0-.6-.1-1.1-.4-1.4-.4-.4-.8-.6-1.2-.6z"/></g><g><path class="st1" d="M227.3 9.4c0 .9-.2 1.5-.6 2-.4.5-1 .7-1.7.7-.5 0-.9-.1-1.2-.3-.3-.2-.6-.5-.8-1-.2-.5-.3-.9-.3-1.5 0-.9.2-1.5.6-2s1-.7 1.7-.7 1.3.2 1.7.7c.4.6.6 1.2.6 2.1zm-4.2 0c0 .7.2 1.3.5 1.7.3.4.8.6 1.4.6.6 0 1-.2 1.4-.6.3-.4.5-1 .5-1.7s-.2-1.3-.5-1.7c-.3-.4-.8-.6-1.4-.6-.6 0-1 .2-1.4.6-.3.4-.5 1-.5 1.7zM229.2 6.7V9h3.4V6.7h.5V12h-.5V9.4h-3.4V12h-.5V6.7h.5zM238.5 12.1h-.5V7.2h-1.9c-.1 1.3-.2 2.3-.4 2.9-.1.7-.3 1.2-.5 1.5-.2.3-.5.5-.9.5h-.3v-.4h.3c.4 0 .7-.4.9-1.2.2-.8.4-2 .5-3.7h2.8v5.3zM243.5 12.1l-.1-.8c-.3.3-.5.6-.8.7-.3.1-.6.2-1 .2-.5 0-.9-.1-1.2-.4-.3-.3-.4-.6-.4-1.1s.2-.9.6-1.2 1.1-.4 1.9-.5h1v-.4c0-.5-.1-.9-.3-1.1-.2-.2-.5-.4-1-.4s-1 .1-1.5.4l-.2-.4c.6-.3 1.2-.4 1.7-.4.6 0 1 .2 1.3.5.3.3.4.8.4 1.4v3.5h-.4zm-1.9-.4c.6 0 1-.2 1.3-.5.3-.3.5-.8.5-1.3v-.5h-.9c-.7 0-1.3.2-1.6.3-.3.2-.5.5-.5.9 0 .3.1.6.3.8.2.2.5.3.9.3zM246.1 6.7v4.8l3.1-4.8h.6V12h-.5V7.2l-3.1 4.8h-.6V6.7h.5zm1.6-.7c-.5 0-.9-.1-1.1-.3-.3-.2-.4-.6-.4-1h.4c0 .4.2.6.3.8.2.1.4.2.8.2s.6-.1.8-.2c.2-.2.3-.4.3-.8h.4c0 .8-.5 1.3-1.5 1.3zM252.1 6.7V9h3.4V6.7h.5V12h-.5V9.4h-3.4V12h-.5V6.7h.5z"/></g></svg>