<svg id="Layer_1" xmlns="http://www.w3.org/2000/svg" viewBox="0 0 46 49"><style>.st0{fill:url(#SVGID_1_)}</style><linearGradient id="SVGID_1_" gradientUnits="userSpaceOnUse" x1="23" y1="49" x2="23" y2="-.501"><stop offset="0" stop-color="#58b947"/><stop offset="1" stop-color="#8ac640"/></linearGradient><path class="st0" d="M34 0v5h-5V0H17v5h-5V0H0v26c0 12.7 10.3 23 23 23s23-10.3 23-23V0H34zM17 45.1l-.1-27.2h7.8c4.3 0 6.4 3.5 6.4 6.5 0 3.1-2.1 6.1-6.4 6.1h-5.9v2.4L29.2 45c-1.9.6-4 1-6.2 1-2.1 0-4.1-.3-6-.9zm26-19.3c0 7.3-3.9 13.8-9.7 17.3l-6.3-8c6-1 9.1-5.8 9.1-10.7C36.1 18.8 32.6 13 25 13H12v29.7c-5.4-3.6-9-9.8-9-16.8V3h6v5h11V3h6v5h11V3h6v22.8z"/></svg>