<svg id="Layer_1" xmlns="http://www.w3.org/2000/svg" viewBox="0 0 92 92"><style>.st0{fill-rule:evenodd;clip-rule:evenodd}.st0,.st1{fill:#c3cece}</style><path class="st0" d="M46 0C20.6 0 0 20.6 0 46s20.6 46 46 46 46-20.6 46-46S71.4 0 46 0zm0 90C21.7 90 2 70.3 2 46S21.7 2 46 2s44 19.7 44 44-19.7 44-44 44z"/><path class="st1" d="M31.9 30.9c.5 0 .9-.1 1.4-.1-.5 0-1 0-1.4.1zm24.7 20.2l-15.8-2.3-7.9-1.2c-1.4-.2-2.7.6-3.2 1.9-.1.2-.1.4-.1.6l-.3 1.7c-.3 1.5.6 2.9 2 3.3.2.1.4.1.5.1l10.6 1.5 13.2 2c1.7.3 3.2-.9 3.4-2.5l.1-.6.1-.3.1-1c.1-.3 0-.8-.1-1.1-.4-1-1.4-1.9-2.6-2.1zm.2 3.1l-.3 1.7c-.1.3-.4.6-.7.5l-2.1-.3-11.3-1.7-10.3-1.5c-.4-.1-.6-.3-.5-.7l.3-1.7c.1-.3.3-.5.6-.5h.1l23.7 3.5.1.1c.2.1.5.3.4.6zM73 36.6l-8.8-1.3-.6-8.4c-.1-2.3-2.2-4-4.5-3.9l-39.8 2.6c-2.3.1-4.1 2.2-3.9 4.5l.3 4.1 1.5 20.1c.1 2.3 2.2 4 4.5 3.9l3.7-.2-.1.3c-.4 2.2 1.3 4.4 3.6 4.7l39.5 5.8c2.3.3 4.4-1.3 4.8-3.6l3.6-24c.2-2.1-1.4-4.2-3.8-4.6zm-55.3-6.5c-.1-1 .7-1.9 1.7-2l39.8-2.6c1.1-.1 1.9.7 2 1.7l.1 1.9c-.1-.1-15.6 1-28.1 1.9-.5 0-.9.1-1.4.1-7.7.5-13.9 1-14 1l-.1-2zm7.9 25.5l-4.2.3c-1.1.1-1.9-.7-2-1.7l-.5-6.9-.1-1.8-.5-6.9c.1 0 4.2-.3 9.9-.6l-.1.4-.4 3.5-5.3.3c-1.7.1-3 1.5-2.8 3.2l.1 1.8c.1 1.7 1.5 2.9 3.2 2.8l3.6-.3-.9 5.9zm1.1-8.3l-4.2.3c-.3 0-.6-.2-.6-.6l-.1-1.8c0-.3.2-.6.6-.6l4.8-.3-.5 3zm45.2 8.9l-.3 2-1 6.8c-.2 1-1.1 1.7-2.1 1.5L29 60.6c-1-.1-1.7-1-1.5-2l.1-.8.3-2.4.6-3.6.3-1.7.1-.5.4-2.4.5-3 .1-.9c.1 0 1.6.3 4.1.6 3.2.5 8 1.2 13 2 .8.1 1.6.2 2.5.3.6.1 1.3.2 1.9.3.8.1 1.5.2 2.3.3 1.7.2 3.4.5 5 .7 1.4.2 2.7.3 4 .6.8.1 1.7.2 2.5.3 4.6.7 7.7 1.1 7.8 1.1l-1.1 6.7zM74.2 41l-.2 1.9c-.1 0-3.9-.6-9.3-1.4-.8-.1-1.6-.2-2.6-.3-.8-.1-1.5-.2-2.4-.3l-1.8-.3c-1.1-.2-2-.3-3.1-.5-6.6-1-13.5-2-18.2-2.6-3.4-.5-5.8-.8-5.8-.8l.3-1.9c.2-1 1.1-1.7 2.1-1.5l20.8 3 7.9 1.1 2.5.3 8.3 1.2c1 .1 1.7 1.1 1.5 2.1zM62.6 52.3c-.5.1-1 .5-1.3.8-.4.4-.6 1-.7 1.5l-.1 1-.1.8c-.2 1.7.9 3.2 2.5 3.4l3.8.6c1.7.3 3.2-.9 3.4-2.5l.3-1.7V56c.1-1.6-1.1-3-2.6-3.2l-2.6-.3-1.2-.3c-.5-.1-1-.1-1.4.1zm4.8 2.8c.3.1.6.3.5.7l-.3 1.7c-.1.3-.4.6-.7.5l-3.7-.5c-.3-.1-.6-.3-.5-.7l.2-1.7V55c.1-.3.4-.6.7-.5h.2l3.6.6z"/></svg>