<svg id="Layer_1" xmlns="http://www.w3.org/2000/svg" viewBox="0 0 92 92"><style>.st0{fill-rule:evenodd;clip-rule:evenodd;fill:#c3cece}</style><path class="st0" d="M46 0C20.6 0 0 20.6 0 46s20.6 46 46 46 46-20.6 46-46S71.4 0 46 0zm0 90C21.7 90 2 70.3 2 46S21.7 2 46 2s44 19.7 44 44-19.7 44-44 44zM19.5 35.5l-7.1 19.8H17l1.5-4.7h7.3l1.5 4.7h4.6l-7.1-19.8h-5.3zm.1 11.6c1.4-4.5 2.3-7.4 2.6-8.5.1.3.2.8.4 1.3.2.6.9 3 2.3 7.2h-5.3zm45.3-10c-1.3 1-2 2.4-2 4.2 0 1.3.3 2.4.9 3.3.6.9 1.5 1.6 2.6 2.1l-5.7 8.7h4.7l4.7-7.6h2.6v7.6H77V35.6h-6.5c-2.4 0-4.3.5-5.6 1.5zm7.9 1.9v5.3h-2c-1.2 0-2.1-.3-2.7-.8-.6-.5-.9-1.2-.9-2.1 0-.9.3-1.5.9-1.9.6-.4 1.5-.6 2.5-.6h2.2zm-18.1 4c-1.3 0-2.3 1-2.3 2.3 0 1.3 1 2.3 2.3 2.3 1.3 0 2.3-1 2.3-2.3 0-1.2-1.1-2.3-2.3-2.3zm-9.2 0c-1.3 0-2.3 1-2.3 2.3 0 1.3 1 2.3 2.3 2.3s2.3-1 2.3-2.3c0-1.2-1.1-2.3-2.3-2.3zm-9.2 0C35 43 34 44 34 45.3c0 1.3 1 2.3 2.3 2.3 1.3 0 2.3-1 2.3-2.3 0-1.2-1.1-2.3-2.3-2.3z"/></svg>