<svg id="Layer_1" xmlns="http://www.w3.org/2000/svg" viewBox="0 0 92 92"><style>.st0{fill-rule:evenodd;clip-rule:evenodd}.st0,.st1{fill:#c3cece}</style><path class="st0" d="M46 0C20.6 0 0 20.6 0 46s20.6 46 46 46 46-20.6 46-46S71.4 0 46 0zm0 90C21.7 90 2 70.3 2 46S21.7 2 46 2s44 19.7 44 44-19.7 44-44 44z"/><path class="st1" d="M26.6 29.1h2.5v3.7h-2.5v24.5h2.5V61h-2.5v3.3h38.7V25.9H26.6v3.2zM46 27.9c9.6 0 17.3 7.7 17.3 17.2-.1 9.5-7.8 17.2-17.3 17.2s-17.3-7.7-17.3-17.2S36.4 27.9 46 27.9zm0 18.4c.7 0 1.2-.6 1.2-1.2s-.6-1.2-1.2-1.2c-.7 0-1.2.6-1.2 1.2s.6 1.2 1.2 1.2zm-14.1 0h2.4c.5 0 .9-.3 1.1-.8h1.3c.1 2.2 1 4.2 2.3 5.7l-1 1c-.4-.2-.9-.1-1.3.2L35 54.1c-.4.5-.4 1.2.1 1.7.4.4 1.2.4 1.7 0l1.7-1.7c.4-.4.4-.9.2-1.3l1-1c1.6 1.4 3.6 2.3 5.8 2.4v1.3c-.4.1-.8.6-.8 1.1V59c0 .7.6 1.2 1.2 1.2.7 0 1.2-.5 1.2-1.2v-2.4c0-.5-.3-.9-.8-1.1v-1.3c2.2-.1 4.2-1 5.8-2.3l1 1c-.2.4-.1.9.2 1.3l1.7 1.7c.5.4 1.2.4 1.7-.1.4-.4.4-1.2 0-1.7L55 52.4c-.4-.4-.9-.4-1.3-.2l-1-1c1.4-1.5 2.3-3.6 2.4-5.8h1.3c.1.4.6.8 1.1.8h2.4c.7-.1 1.2-.6 1.2-1.2s-.5-1.2-1.2-1.2h-2.4c-.5 0-.9.3-1.1.8h-1.3c-.1-2.2-1-4.2-2.4-5.8l.9-.9c.4.2.9.1 1.3-.2l1.7-1.7c.5-.6.5-1.4.1-1.8-.4-.4-1.2-.4-1.7 0L53.5 36c-.4.4-.4.9-.2 1.3l-1 1c-1.6-1.4-3.6-2.3-5.8-2.4v-1.3c.4-.1.8-.6.8-1.1v-2.4c-.1-.7-.6-1.2-1.2-1.2-.7 0-1.2.5-1.2 1.2v2.4c0 .5.3.9.8 1.1v1.3c-2.2.1-4.2 1-5.8 2.3l-1-1c.2-.4.1-.9-.2-1.3L37 34.3c-.4-.5-1.2-.5-1.7 0-.4.4-.4 1.2 0 1.7l1.7 1.7c.4.4.9.4 1.3.2l1 1c-1.4 1.5-2.3 3.6-2.4 5.8h-1.3c-.1-.4-.6-.8-1.1-.8h-2.4c-.7 0-1.2.6-1.2 1.2s.3 1.2 1 1.2zm13.7 7.2c-2-.1-3.8-.9-5.2-2.2l2.4-2.4c.8.6 1.7 1.1 2.8 1.2v3.4zm.9 0V50c1-.1 2-.5 2.7-1.1l2.4 2.4c-1.4 1.3-3.2 2.1-5.1 2.2zm5.8-2.8l-2.4-2.4c.7-.8 1.1-1.7 1.2-2.8h3.4c-.2 2-1 3.8-2.2 5.2zm2.1-6H51c-.1-1-.5-2-1.1-2.7l2.4-2.4c1.3 1.3 2 3.1 2.1 5.1zm-7.9-8c2 .1 3.8.9 5.2 2.1l-2.5 2.4c-.8-.6-1.7-1-2.8-1.1v-3.4zM46 41c2.3 0 4.1 1.8 4.1 4.1 0 2.2-1.8 4.1-4.1 4.1s-4.1-1.8-4.1-4.1c0-2.2 1.8-4.1 4.1-4.1zm-.4-4.3v3.4c-1 .1-2 .5-2.7 1.1l-2.4-2.4c1.3-1.2 3.1-2 5.1-2.1zm-5.8 2.8l2.4 2.4c-.7.8-1.1 1.7-1.2 2.8h-3.4c.1-2 .9-3.8 2.2-5.2zm1.3 6c.1 1 .5 1.9 1.1 2.7l-2.4 2.4c-1.2-1.4-2-3.2-2.1-5.1h3.4zm25-24.8H25.9c-2.4 0-4.4 2-4.4 4.4v40c0 2.4 2 4.4 4.4 4.4h2c-.1.1-.1.3-.1.4 0 .7.6 1.3 1.3 1.3H33c.7 0 1.3-.6 1.3-1.3 0-.1 0-.3-.1-.4h23.9c-.1.1-.1.3-.1.4 0 .7.6 1.3 1.3 1.3h3.9c.7 0 1.3-.6 1.3-1.3 0-.1 0-.3-.1-.4h1.5c2.4 0 4.4-2 4.4-4.4v-40c.2-2.4-1.7-4.4-4.2-4.4zm.1 46.1H25.9c-.9 0-1.7-.8-1.7-1.7v-40c0-.9.8-1.7 1.7-1.7h40.2c.9 0 1.7.8 1.7 1.7v40h.1c0 .9-.8 1.7-1.7 1.7z"/></svg>