<svg xmlns="http://www.w3.org/2000/svg" viewBox="0 0 20 20"><path d="M20 9.4c0-.2-.1-.3-.2-.5-.1-.1-.3-.2-.4-.3L18 8.4c-.4-.1-.7-.3-.8-.7l-.5-1.3c-.2-.4-.2-.7.1-1.1l.9-1.1c.2-.3.2-.7 0-1l-.9-.9c-.3-.3-.6-.3-.9 0l-1.1.8c-.3.3-.7.3-1.1.1l-1.3-.5c-.2-.1-.3-.2-.4-.3-.1-.2-.2-.3-.2-.5L11.6.5c0-.2-.1-.3-.3-.4-.3 0-.5-.1-.7-.1H9.4c-.2 0-.4.1-.5.3-.2.1-.2.2-.3.4l-.2 1.4c0 .4-.2.7-.6.8l-1.3.5c-.3.2-.7.1-1-.1l-1.1-.8c-.3-.2-.7-.2-1 0l-.9.9c-.3.3-.3.6 0 1l.8 1.1c.3.3.3.7.1 1.1l-.5 1.2c-.1.1-.2.3-.3.4-.2.2-.4.2-.5.2l-1.4.2c-.2 0-.3.1-.4.3-.2.1-.3.3-.3.5v1.2c0 .2.1.3.2.5.1.1.3.2.4.3l1.4.2c.2 0 .3.1.5.2s.3.3.3.4l.5 1.3c.2.4.1.7-.1 1.1l-.8 1.1c-.2.3-.3.6-.1.8l.1.1c0 .1.1.1.1.2l.2.2c.1 0 .2 0 .2.1.1 0 .1.1.2.1.1.1.1.1.2.1.1.1.3.2.5.2.2.1.4 0 .6 0l1.1-.8c.3-.3.7-.3 1.1-.1l1.3.5c.2.1.3.2.4.3.1.2.2.3.2.5l.2 1.4c0 .2.1.3.3.4 0 .2.2.3.4.3h1.2c.2 0 .3-.1.5-.2.1-.1.2-.3.3-.4l.2-1.4c0-.2.1-.3.2-.5s.3-.3.4-.3l1.3-.5c.4-.2.7-.1 1.1.1l1.1.8c.3.2.7.2 1 0l.9-.9c.3-.3.3-.6 0-1l-.9-1.1c-.2-.3-.3-.7-.1-1.1l.5-1.3c.1-.4.4-.6.8-.7l1.4-.2c.2 0 .3-.1.4-.3.1-.1.2-.3.2-.5v-.6l.1-.5zm-10 4.9c-2.4 0-4.3-1.9-4.3-4.3S7.6 5.7 10 5.7s4.3 1.9 4.3 4.3-1.9 4.3-4.3 4.3z"/></svg>