<?xml version="1.0" encoding="utf-8"?>
<!-- Generator: Adobe Illustrator 20.1.0, SVG Export Plug-In . SVG Version: 6.00 Build 0)  -->
<svg version="1.1" id="Layer_1" xmlns="http://www.w3.org/2000/svg" xmlns:xlink="http://www.w3.org/1999/xlink" x="0px" y="0px"
	 viewBox="0 0 18 15" style="enable-background:new 0 0 18 15;" xml:space="preserve">
<style type="text/css">
	.st0{fill-rule:evenodd;clip-rule:evenodd;}
</style>
<g>
	<g>
		<path class="st0" d="M13,0h-3v3h3V0z M3,15h5v-3H3V15z M4,13h3v1H4V13z M0,11h8V8H0V11z M1,9h6v1H1V9z M16,4h-6v3h6V4z M2,7h6V4H2
			V7z M3,5h4v1H3V5z M10,15h5v-3h-5V15z M5,3h3V0H5V3z M6,1h1v1H6V1z M10,8v3h8V8H10z"/>
	</g>
</g>
</svg>
