<?xml version="1.0" encoding="utf-8"?>
<!-- Generator: Adobe Illustrator 19.2.1, SVG Export Plug-In . SVG Version: 6.00 Build 0)  -->
<svg version="1.1" id="Layer_1" xmlns="http://www.w3.org/2000/svg" xmlns:xlink="http://www.w3.org/1999/xlink" x="0px" y="0px"
	 viewBox="0 0 92 92" style="enable-background:new 0 0 92 92;" xml:space="preserve">
<style type="text/css">
	.st0{fill-rule:evenodd;clip-rule:evenodd;fill:#C3CECE;}
	.st1{fill:#C3CECE;}
</style>
<g>
	<g>
		<g>
			<path class="st0" d="M46,0C20.6,0,0,20.6,0,46c0,25.4,20.6,46,46,46c25.4,0,46-20.6,46-46C92,20.6,71.4,0,46,0z M46,90
				C21.7,90,2,70.3,2,46C2,21.7,21.7,2,46,2c24.3,0,44,19.7,44,44C90,70.3,70.3,90,46,90z"/>
		</g>
	</g>
	<g>
		<g>
			<path class="st1" d="M65,18.5l-40,0v55h42v-55H65z M65,71.5H27V20.5h5.7v12.2c2.3-2.3,4.6-4.7,7-7.1l7,7.1V20.5H65V71.5z
				 M32.7,41.4h26.5v-2H32.7V41.4z M32.7,47.2h26.5v-2H32.7V47.2z M32.7,53.1h26.5v-2H32.7V53.1z M32.7,59.8H46v-2H32.7V59.8z
				 M50.2,65.5h9v-2h-9V65.5z"/>
		</g>
	</g>
</g>
</svg>
