<?xml version="1.0" encoding="utf-8"?>
<!-- Generator: Adobe Illustrator 19.2.1, SVG Export Plug-In . SVG Version: 6.00 Build 0)  -->
<svg version="1.1" id="Layer_1" xmlns="http://www.w3.org/2000/svg" xmlns:xlink="http://www.w3.org/1999/xlink" x="0px" y="0px"
	 viewBox="0 0 20 18" style="enable-background:new 0 0 20 18;" xml:space="preserve">
<style type="text/css">
	.st0{fill:#B8C6C7;}
</style>
<g>
	<g>
		<path class="st0" d="M18,2.9c-1.1,0-2,0.9-2,2.1c0,0.5,0.2,1,0.5,1.3l-2.1,2.4l-1-4.7c0.8-0.3,1.4-1.1,1.4-2c0-1.2-0.9-2.1-2-2.1
			c-1.1,0-2,0.9-2,2.1c0,0.7,0.4,1.4,0.9,1.8L10,8.6L8.3,3.9c0.6-0.4,0.9-1,0.9-1.8c0-1.2-0.9-2.1-2-2.1c-1.1,0-2,0.9-2,2.1
			c0,0.9,0.6,1.7,1.4,2l-1,4.7L3.5,6.4C3.8,6,4,5.5,4,5c0-1.2-0.9-2.1-2-2.1C0.9,2.9,0,3.9,0,5c0,1.1,0.8,2,1.9,2.1l2.3,6.7h11.6
			l2.3-6.7c1.1,0,1.9-1,1.9-2.1C20,3.9,19.1,2.9,18,2.9z M4.2,18h11.6v-2.9H4.2V18z"/>
	</g>
</g>
</svg>
