<?xml version="1.0" encoding="utf-8"?>
<!-- Generator: Adobe Illustrator 19.1.1, SVG Export Plug-In . SVG Version: 6.00 Build 0)  -->
<svg version="1.1" id="Layer_1" xmlns="http://www.w3.org/2000/svg" xmlns:xlink="http://www.w3.org/1999/xlink" x="0px" y="0px"
	 viewBox="0 0 20 20" style="enable-background:new 0 0 20 20;" xml:space="preserve">
<g>
	<g>
		<path d="M15.2,17.8h-13v-13H9l2.2-2.2h-9C1,2.7,0,3.6,0,4.8v13C0,19,1,20,2.2,20h13c1.2,0,2.2-1,2.2-2.2v-9L15.2,11V17.8z
			 M6.6,10.4l3.1,3.1L18,5L15,2L6.6,10.4z M19.7,2.1l-1.9-1.9c-0.3-0.3-0.9-0.3-1.2,0l-0.9,0.9l3.1,3.1l0.9-0.9
			C20.1,3,20.1,2.4,19.7,2.1z M5.8,11.1L5,15l3.8-0.8L5.8,11.1z"/>
	</g>
</g>
</svg>
