<?xml version="1.0" encoding="utf-8"?>
<!-- Generator: Adobe Illustrator 19.1.1, SVG Export Plug-In . SVG Version: 6.00 Build 0)  -->
<svg version="1.1" id="Layer_1" xmlns="http://www.w3.org/2000/svg" xmlns:xlink="http://www.w3.org/1999/xlink" x="0px" y="0px"
	 viewBox="0 0 26 20" style="enable-background:new 0 0 26 20;" xml:space="preserve">
<g>
	<g>
		<path d="M25.9,9.9L25.9,9.9c-1.6-1.5-3.2-3-4.8-4.4c0,0.4,0,1.6,0,3.1h-8.3v2.9h8.3c0,1.4,0,2.7,0,3.1c1.6-1.4,3.2-2.9,4.8-4.3
			C25.9,10.1,26.1,10,25.9,9.9z M10,17.1c-3.9,0-7.1-3.2-7.1-7.1C2.8,6.1,6,2.9,10,2.9c2.3,0,4.4,1.1,5.7,2.9H19
			c-1.6-3.4-5-5.7-9-5.7C4.5,0,0,4.5,0,10c0,5.5,4.5,10,10,10c4,0,7.4-2.3,9-5.7h-3.3C14.3,16,12.3,17.1,10,17.1z"/>
	</g>
</g>
</svg>
