<?xml version="1.0" encoding="utf-8"?>
<!-- Generator: Adobe Illustrator 19.1.1, SVG Export Plug-In . SVG Version: 6.00 Build 0)  -->
<svg version="1.1" id="Layer_1" xmlns="http://www.w3.org/2000/svg" xmlns:xlink="http://www.w3.org/1999/xlink" x="0px" y="0px"
	 viewBox="168.5 -33.7 112.8 49.5" style="enable-background:new 168.5 -33.7 112.8 49.5;" xml:space="preserve">
<style type="text/css">
	.st0{fill:url(#SVGID_1_);}
	.st1{fill:#808080;}
</style>
<g>
	<g>
		
			<linearGradient id="SVGID_1_" gradientUnits="userSpaceOnUse" x1="191.5" y1="10.2625" x2="191.5" y2="59.7639" gradientTransform="matrix(1 0 0 -1 0 26.05)">
			<stop  offset="0" style="stop-color:#58B947"/>
			<stop  offset="1" style="stop-color:#8AC640"/>
		</linearGradient>
		<path class="st0" d="M202.5-33.2v5h-5v-5h-12v5h-5v-5h-12v26c0,12.7,10.3,23,23,23s23-10.3,23-23v-26H202.5z M185.5,11.9
			l-0.1-27.2h7.8c4.3,0,6.4,3.5,6.4,6.5c0,3.1-2.1,6.1-6.4,6.1h-5.9v2.4l10.4,12.1c-1.9,0.6-4,1-6.2,1
			C189.4,12.8,187.4,12.5,185.5,11.9z M211.5-7.4c0,7.3-3.9,13.8-9.7,17.3l-6.3-8c6-1,9.1-5.8,9.1-10.7c0-5.6-3.5-11.4-11.1-11.4
			h-13V9.5c-5.4-3.6-9-9.8-9-16.8v-22.9h6v5h11v-5h6v5h11v-5h6V-7.4z"/>
	</g>
</g>
<g>
	<path d="M225-27.1h2c1.5,0,2.2-1.1,2.2-2.1s-0.7-2.3-2.2-2.3h-2.7V-21h-1.7v-12.2h4.4c2.6,0,4,2.1,4,4c0,1.7-1.1,3.4-3.1,3.7
		l3.8,4.6h-2.3l-4.4-5.3V-27.1z"/>
	<path d="M234.8-32.7c0,1.3-2.1,1.3-2.1,0C232.7-34,234.8-34,234.8-32.7z M234.6-30.4h-1.7v9.5h1.7V-30.4z"/>
	<path d="M240.8-26.4c1.8,0.1,3.8,0.7,3.8,2.8c0,2.2-2.2,2.8-3.9,2.8c-1.9,0-3.8-0.8-3.9-3h1.7c0.1,1.1,1.1,1.6,2.3,1.6
		c0.9,0,2.1-0.3,2.1-1.4s-1.5-1.2-2.3-1.3c-1.7-0.1-3.7-0.6-3.7-2.7c0-2.2,1.9-2.9,3.8-2.9s3.5,0.8,3.6,2.8h-1.7
		c-0.1-0.8-1-1.2-2-1.2s-2,0.4-2,1.4C238.6-26.4,240-26.4,240.8-26.4z"/>
	<path d="M248.3-25.8l1.4-1.7l2.6-2.8h2l-3.8,4l4,5.2v0.2h-2l-3.2-4.2l-1.2,1.3v2.9h-1.7v-12.2h1.7v7.3H248.3z"/>
</g>
<g>
	<path d="M224.3-6.6h-1.8v-12.2h1.4l4,5.9l4-5.9h1.4v12.2h-1.7v-8.6l-3.2,4.7h-1l-3.2-4.7v8.6H224.3z"/>
	<path d="M246-16v9.4h-1.7v-1.3c-0.7,1-2.2,1.4-3.4,1.4c-3.3,0-5.1-2.3-5.1-4.9c0-2.5,1.8-4.8,5-4.8c1.2,0,2.6,0.3,3.4,1.4v-1.3h1.8
		V-16z M240.8-14.7c-2,0-3.3,1.5-3.3,3.3s1.3,3.4,3.4,3.4c1.5,0,3.3-1.1,3.3-3.4C244.3-13.6,242.4-14.7,240.8-14.7z"/>
	<path d="M250.1-16v1.1c0.9-1.3,2.3-1.6,3.8-1.2v1.5c-1.9-0.6-3.8,0.8-3.8,2.9v5.1h-1.7V-16L250.1-16L250.1-16z"/>
	<path d="M257.5-11.5l1.4-1.7l2.6-2.8h2l-3.8,4l4,5.2v0.2h-2l-3.2-4.2l-1.2,1.3v2.9h-1.7v-12.2h1.7v7.3H257.5z"/>
	<path d="M274.2-10.9h-8c0,1.8,1.8,3,3.2,3c1.2,0,2.2-0.5,2.8-1.6h1.8c-0.7,2-2.6,3.1-4.6,3.1c-2.4,0-4.8-1.6-4.8-4.9
		s2.4-4.8,4.9-4.8c2.3,0,4.6,1.5,4.8,4.4C274.2-11.4,274.2-11.1,274.2-10.9z M272.4-12.3c-0.3-1.7-1.7-2.3-3-2.3
		c-1.4,0-2.8,0.7-3.1,2.3H272.4z"/>
	<path d="M278.7-18.1v2.1h2.1v1.4h-2.1v5.3c0,1.4,0.9,1.5,2.1,1.3v1.4c-2.3,0.2-3.8-0.3-3.8-2.8v-5.3h-1.4v-1.4h1.4v-1.8L278.7-18.1
		z"/>
</g>
<g>
	<path class="st1" d="M225,3.4c-0.8,0-1.4-0.2-1.8-0.7c-0.4-0.5-0.6-1.1-0.6-2s0.2-1.6,0.7-2.1c0.4-0.5,1.1-0.7,1.8-0.7
		c0.5,0,0.9,0.1,1.3,0.2l-0.1,0.4c-0.5-0.2-0.9-0.2-1.2-0.2c-0.7,0-1.1,0.2-1.5,0.6c-0.3,0.4-0.5,1-0.5,1.7s0.2,1.3,0.5,1.7
		c0.3,0.4,0.8,0.6,1.4,0.6c0.5,0,0.9-0.1,1.3-0.3V3C226,3.3,225.6,3.4,225,3.4z"/>
	<path class="st1" d="M231-1.6h-1.8v4.9h-0.5v-4.9h-1.8V-2h4.1V-1.6z"/>
	<path class="st1" d="M234.4,3.4c-0.8,0-1.4-0.3-1.8-0.9l0,0v0.4c0,0.2,0,0.5,0,0.8v2h-0.5V-2h0.4l0.1,0.8l0,0
		c0.4-0.6,0.9-0.9,1.7-0.9c0.7,0,1.3,0.2,1.6,0.7c0.4,0.5,0.6,1.2,0.6,2.1c0,0.9-0.2,1.5-0.6,2C235.6,3.2,235.1,3.4,234.4,3.4z
		 M234.4,3c0.5,0,1-0.2,1.3-0.6c0.3-0.4,0.4-1,0.4-1.7c0-1.6-0.6-2.3-1.7-2.3c-0.6,0-1.1,0.2-1.4,0.5s-0.4,0.9-0.4,1.7v0.2
		c0,0.8,0.1,1.4,0.4,1.8C233.3,2.8,233.7,3,234.4,3z"/>
	<path class="st1" d="M241.3,3.3l-0.1-0.8l0,0c-0.3,0.3-0.5,0.6-0.8,0.7c-0.3,0.1-0.6,0.2-1,0.2c-0.5,0-0.9-0.1-1.2-0.4
		c-0.3-0.3-0.4-0.6-0.4-1.1s0.2-0.9,0.6-1.2s1.1-0.4,1.9-0.5h1v-0.4c0-0.5-0.1-0.9-0.3-1.1c-0.2-0.2-0.5-0.4-1-0.4s-1,0.1-1.5,0.4
		l-0.2-0.4c0.6-0.3,1.2-0.4,1.7-0.4c0.6,0,1,0.2,1.3,0.5c0.3,0.3,0.4,0.8,0.4,1.4v3.5H241.3z M239.3,3c0.6,0,1-0.2,1.3-0.5
		c0.3-0.3,0.5-0.8,0.5-1.3V0.7h-0.9c-0.7,0-1.3,0.2-1.6,0.3c-0.3,0.2-0.5,0.5-0.5,0.9c0,0.3,0.1,0.6,0.3,0.8
		C238.7,2.9,239,3,239.3,3z"/>
	<path class="st1" d="M244.7,0.6L242.8-2h0.6l1.6,2.2l1.6-2.2h0.5l-1.8,2.6l2,2.7h-0.6L245,0.9l-1.7,2.4h-0.5L244.7,0.6z"/>
	<path class="st1" d="M252.7,0.6c0,0.9-0.2,1.5-0.6,2s-1,0.7-1.7,0.7c-0.5,0-0.9-0.1-1.2-0.3c-0.3-0.2-0.6-0.5-0.8-1
		c-0.2-0.5-0.3-0.9-0.3-1.5c0-0.9,0.2-1.5,0.6-2c0.4-0.5,1-0.7,1.7-0.7c0.7,0,1.3,0.2,1.7,0.7C252.5-0.9,252.7-0.2,252.7,0.6z
		 M248.5,0.6c0,0.7,0.2,1.3,0.5,1.7c0.3,0.4,0.8,0.6,1.4,0.6c0.6,0,1-0.2,1.4-0.6c0.3-0.4,0.5-1,0.5-1.7s-0.2-1.3-0.5-1.7
		c-0.3-0.4-0.8-0.6-1.4-0.6c-0.6,0-1,0.2-1.4,0.6C248.7-0.7,248.5-0.1,248.5,0.6z"/>
	<path class="st1" d="M258.3-0.7c0,0.3-0.1,0.6-0.2,0.8c-0.2,0.2-0.4,0.3-0.8,0.4l0,0c0.4,0,0.7,0.2,0.9,0.4
		c0.2,0.2,0.3,0.5,0.3,0.8c0,0.5-0.2,0.9-0.5,1.2c-0.3,0.3-0.8,0.4-1.5,0.4h-2.2V-2h2.3c0.6,0,1.1,0.1,1.4,0.3
		C258.1-1.5,258.3-1.1,258.3-0.7z M257.8-0.7c0-0.3-0.1-0.5-0.3-0.7c-0.2-0.1-0.6-0.2-1-0.2h-1.7v1.8h1.7c0.5,0,0.8-0.1,1.1-0.2
		C257.9-0.1,257.8-0.4,257.8-0.7z M257.9,1.7c0-0.7-0.5-1-1.5-1h-1.7v2.1h1.8C257.4,2.8,257.9,2.5,257.9,1.7z"/>
	<path class="st1" d="M263.1,3.3L263,2.5l0,0c-0.3,0.3-0.5,0.6-0.8,0.7c-0.3,0.1-0.6,0.2-1,0.2c-0.5,0-0.9-0.1-1.2-0.4
		c-0.3-0.3-0.4-0.6-0.4-1.1s0.2-0.9,0.6-1.2c0.4-0.3,1.1-0.4,1.9-0.5h1v-0.4c0-0.5-0.1-0.9-0.3-1.1c-0.2-0.2-0.5-0.4-1-0.4
		s-1,0.1-1.5,0.4l-0.2-0.4c0.6-0.3,1.2-0.4,1.7-0.4c0.6,0,1,0.2,1.3,0.5c0.3,0.3,0.4,0.8,0.4,1.4v3.5H263.1z M261.1,3
		c0.6,0,1-0.2,1.3-0.5c0.3-0.3,0.5-0.8,0.5-1.3V0.7H262c-0.7,0-1.3,0.2-1.6,0.3c-0.3,0.2-0.5,0.5-0.5,0.9c0,0.3,0.1,0.6,0.3,0.8
		C260.5,2.9,260.8,3,261.1,3z"/>
	<path class="st1" d="M265.6-2v2.3h3.4V-2h0.5v5.3H269V0.7h-3.4v2.6h-0.5V-2H265.6z"/>
	<path class="st1" d="M271.7-2v3.8v1l3.1-4.8h0.6v5.3h-0.5v-3.8v-1l-3.1,4.8h-0.6V-2H271.7z"/>
	<path class="st1" d="M279.4,3.4c-0.8,0-1.4-0.2-1.8-0.7s-0.6-1.1-0.6-2c0-0.8,0.2-1.5,0.6-2c0.4-0.5,1-0.8,1.7-0.8
		c0.6,0,1.1,0.2,1.5,0.7s0.5,1,0.5,1.8v0.4h-3.8c0,0.7,0.2,1.3,0.5,1.7c0.3,0.4,0.8,0.6,1.4,0.6c0.3,0,0.6,0,0.8-0.1
		c0.2,0,0.5-0.1,0.9-0.3v0.4c-0.3,0.1-0.6,0.2-0.8,0.3C280,3.4,279.7,3.4,279.4,3.4z M279.3-1.7c-0.5,0-0.9,0.2-1.2,0.5
		c-0.3,0.3-0.5,0.8-0.5,1.5h3.3c0-0.6-0.1-1.1-0.4-1.4C280.1-1.5,279.7-1.7,279.3-1.7z"/>
</g>
<g>
	<path class="st1" d="M227.3,9.4c0,0.9-0.2,1.5-0.6,2c-0.4,0.5-1,0.7-1.7,0.7c-0.5,0-0.9-0.1-1.2-0.3c-0.3-0.2-0.6-0.5-0.8-1
		c-0.2-0.5-0.3-0.9-0.3-1.5c0-0.9,0.2-1.5,0.6-2s1-0.7,1.7-0.7c0.7,0,1.3,0.2,1.7,0.7C227.1,7.9,227.3,8.5,227.3,9.4z M223.1,9.4
		c0,0.7,0.2,1.3,0.5,1.7c0.3,0.4,0.8,0.6,1.4,0.6c0.6,0,1-0.2,1.4-0.6c0.3-0.4,0.5-1,0.5-1.7s-0.2-1.3-0.5-1.7
		c-0.3-0.4-0.8-0.6-1.4-0.6c-0.6,0-1,0.2-1.4,0.6C223.3,8.1,223.1,8.7,223.1,9.4z"/>
	<path class="st1" d="M229.2,6.7V9h3.4V6.7h0.5V12h-0.5V9.4h-3.4V12h-0.5V6.7H229.2z"/>
	<path class="st1" d="M238.5,12.1H238V7.2h-1.9c-0.1,1.3-0.2,2.3-0.4,2.9c-0.1,0.7-0.3,1.2-0.5,1.5c-0.2,0.3-0.5,0.5-0.9,0.5
		c-0.1,0-0.2,0-0.3,0v-0.4c0.1,0,0.1,0,0.3,0c0.4,0,0.7-0.4,0.9-1.2c0.2-0.8,0.4-2,0.5-3.7h2.8L238.5,12.1L238.5,12.1z"/>
	<path class="st1" d="M243.5,12.1l-0.1-0.8l0,0c-0.3,0.3-0.5,0.6-0.8,0.7c-0.3,0.1-0.6,0.2-1,0.2c-0.5,0-0.9-0.1-1.2-0.4
		c-0.3-0.3-0.4-0.6-0.4-1.1s0.2-0.9,0.6-1.2s1.1-0.4,1.9-0.5h1V8.6c0-0.5-0.1-0.9-0.3-1.1c-0.2-0.2-0.5-0.4-1-0.4s-1,0.1-1.5,0.4
		l-0.2-0.4c0.6-0.3,1.2-0.4,1.7-0.4c0.6,0,1,0.2,1.3,0.5c0.3,0.3,0.4,0.8,0.4,1.4v3.5H243.5z M241.6,11.7c0.6,0,1-0.2,1.3-0.5
		c0.3-0.3,0.5-0.8,0.5-1.3V9.4h-0.9c-0.7,0-1.3,0.2-1.6,0.3c-0.3,0.2-0.5,0.5-0.5,0.9c0,0.3,0.1,0.6,0.3,0.8
		C240.9,11.6,241.2,11.7,241.6,11.7z"/>
	<path class="st1" d="M246.1,6.7v3.8v1l3.1-4.8h0.6V12h-0.5V8.2v-1l-3.1,4.8h-0.6V6.7H246.1z M247.7,6c-0.5,0-0.9-0.1-1.1-0.3
		c-0.3-0.2-0.4-0.6-0.4-1h0.4c0,0.4,0.2,0.6,0.3,0.8c0.2,0.1,0.4,0.2,0.8,0.2c0.4,0,0.6-0.1,0.8-0.2c0.2-0.2,0.3-0.4,0.3-0.8h0.4
		C249.2,5.5,248.7,6,247.7,6z"/>
	<path class="st1" d="M252.1,6.7V9h3.4V6.7h0.5V12h-0.5V9.4h-3.4V12h-0.5V6.7H252.1z"/>
</g>
</svg>
