<?xml version="1.0" encoding="utf-8"?>
<!-- Generator: Adobe Illustrator 19.1.1, SVG Export Plug-In . SVG Version: 6.00 Build 0)  -->
<svg version="1.1" id="Layer_1" xmlns="http://www.w3.org/2000/svg" xmlns:xlink="http://www.w3.org/1999/xlink" x="0px" y="0px"
	 viewBox="0 0 46 49" style="enable-background:new 0 0 46 49;" xml:space="preserve">
<style type="text/css">
	.st0{fill:url(#SVGID_1_);}
</style>
<g>
	<g>
		<linearGradient id="SVGID_1_" gradientUnits="userSpaceOnUse" x1="23" y1="49" x2="23" y2="-0.5014">
			<stop  offset="0" style="stop-color:#58B947"/>
			<stop  offset="1" style="stop-color:#8AC640"/>
		</linearGradient>
		<path class="st0" d="M34,0v5h-5V0H17v5h-5V0H0v26c0,12.7,10.3,23,23,23c12.7,0,23-10.3,23-23V0H34z M17,45.1l-0.1-27.2h7.8
			c4.3,0,6.4,3.5,6.4,6.5c0,3.1-2.1,6.1-6.4,6.1h-5.9v2.4L29.2,45c-1.9,0.6-4,1-6.2,1C20.9,46,18.9,45.7,17,45.1z M43,25.8
			c0,7.3-3.9,13.8-9.7,17.3l-6.3-8c6-1,9.1-5.8,9.1-10.7C36.1,18.8,32.6,13,25,13H12v29.7c-5.4-3.6-9-9.8-9-16.8V3h6v5h11V3h6v5h11
			V3h6V25.8z"/>
	</g>
</g>
</svg>
