<?xml version="1.0" encoding="utf-8"?>
<!-- Generator: Adobe Illustrator 19.1.1, SVG Export Plug-In . SVG Version: 6.00 Build 0)  -->
<svg version="1.1" id="Layer_1" xmlns="http://www.w3.org/2000/svg" xmlns:xlink="http://www.w3.org/1999/xlink" x="0px" y="0px"
	 viewBox="0 0 16 20" style="enable-background:new 0 0 16 20;" xml:space="preserve">
<g>
	<g>
		<path d="M15.9,1c-0.1-0.2-0.2-0.4-0.3-0.5c-0.2-0.1-0.3-0.3-0.5-0.3C14.8,0,14.6,0,14.4,0H1.6C1.4,0,1.2,0,1,0.1
			C0.8,0.2,0.6,0.3,0.5,0.5C0.3,0.6,0.2,0.8,0.1,1C0,1.2,0,1.4,0,1.6v16.8c0,0.2,0,0.4,0.1,0.6c0.1,0.2,0.2,0.4,0.3,0.5
			c0.2,0.1,0.3,0.3,0.5,0.3C1.2,20,1.4,20,1.6,20h12.8c0.2,0,0.4,0,0.6-0.1c0.2-0.1,0.4-0.2,0.5-0.3c0.1-0.1,0.3-0.3,0.3-0.5
			c0.1-0.2,0.1-0.4,0.1-0.6V1.6C16,1.4,16,1.2,15.9,1z M14,18H2V2h12V18z M12,11H4v1h8V11z M8,16h4v-1H8V16z M12,13H4v1h8V13z
			 M7.9,9L7.9,9h0.1c0,0,0.5-0.3,1-0.8c0.6-0.7,1-1.5,1-2.4V4L9.9,4L6.1,4L6,4l0,0.1v1.6c0,0.9,0.3,1.7,1,2.4C7.5,8.7,7.9,9,7.9,9z"
			/>
	</g>
</g>
</svg>
