<?xml version="1.0" encoding="utf-8"?>
<!-- Generator: Adobe Illustrator 19.1.1, SVG Export Plug-In . SVG Version: 6.00 Build 0)  -->
<svg version="1.1" id="Layer_1" xmlns="http://www.w3.org/2000/svg" xmlns:xlink="http://www.w3.org/1999/xlink" x="0px" y="0px"
	 viewBox="0 0 28 28" style="enable-background:new 0 0 28 28;" xml:space="preserve">
<style type="text/css">
	.st0{fill-rule:evenodd;clip-rule:evenodd;fill:#B4B4B5;}
</style>
<g>
	<g>
		<path class="st0" d="M14,0C6.3,0,0,6.3,0,14c0,7.7,6.3,14,14,14s14-6.3,14-14C28,6.3,21.7,0,14,0z M14,27C6.8,27,1,21.2,1,14
			S6.8,1,14,1c7.2,0,13,5.8,13,13S21.2,27,14,27z M18.2,9L14,13.2L9.8,9L9,9.8l4.2,4.2L9,18.2L9.8,19l4.2-4.2l4.2,4.2l0.8-0.8
			L14.8,14L19,9.8L18.2,9z"/>
	</g>
</g>
</svg>
