<?xml version="1.0" encoding="utf-8"?>
<!-- Generator: Adobe Illustrator 19.2.1, SVG Export Plug-In . SVG Version: 6.00 Build 0)  -->
<svg version="1.1" id="Layer_1" xmlns="http://www.w3.org/2000/svg" xmlns:xlink="http://www.w3.org/1999/xlink" x="0px" y="0px"
	 viewBox="0 0 92 92" style="enable-background:new 0 0 92 92;" xml:space="preserve">
<style type="text/css">
	.st0{fill-rule:evenodd;clip-rule:evenodd;fill:#C3CECE;}
</style>
<g>
	<g>
		<path class="st0" d="M46,0C20.6,0,0,20.6,0,46c0,25.4,20.6,46,46,46c25.4,0,46-20.6,46-46C92,20.6,71.4,0,46,0z M46,90
			C21.7,90,2,70.3,2,46C2,21.7,21.7,2,46,2c24.3,0,44,19.7,44,44C90,70.3,70.3,90,46,90z M19.5,35.5l-7.1,19.8h4.6l1.5-4.7h7.3
			l1.5,4.7h4.6l-7.1-19.8H19.5z M19.6,47.1c1.4-4.5,2.3-7.4,2.6-8.5c0.1,0.3,0.2,0.8,0.4,1.3c0.2,0.6,0.9,3,2.3,7.2H19.6z
			 M64.9,37.1c-1.3,1-2,2.4-2,4.2c0,1.3,0.3,2.4,0.9,3.3c0.6,0.9,1.5,1.6,2.6,2.1l-5.7,8.7h4.7l4.7-7.6h2.6v7.6H77V35.6h-6.5
			C68.1,35.6,66.2,36.1,64.9,37.1z M72.8,39v5.3h-2c-1.2,0-2.1-0.3-2.7-0.8c-0.6-0.5-0.9-1.2-0.9-2.1c0-0.9,0.3-1.5,0.9-1.9
			c0.6-0.4,1.5-0.6,2.5-0.6H72.8z M54.7,43c-1.3,0-2.3,1-2.3,2.3c0,1.3,1,2.3,2.3,2.3c1.3,0,2.3-1,2.3-2.3C57,44.1,55.9,43,54.7,43z
			 M45.5,43c-1.3,0-2.3,1-2.3,2.3c0,1.3,1,2.3,2.3,2.3s2.3-1,2.3-2.3C47.8,44.1,46.7,43,45.5,43z M36.3,43c-1.3,0-2.3,1-2.3,2.3
			c0,1.3,1,2.3,2.3,2.3c1.3,0,2.3-1,2.3-2.3C38.6,44.1,37.5,43,36.3,43z"/>
	</g>
</g>
</svg>
