<?xml version="1.0" encoding="utf-8"?>
<!-- Generator: Adobe Illustrator 19.2.1, SVG Export Plug-In . SVG Version: 6.00 Build 0)  -->
<svg version="1.1" id="Layer_1" xmlns="http://www.w3.org/2000/svg" xmlns:xlink="http://www.w3.org/1999/xlink" x="0px" y="0px"
	 viewBox="0 0 92 92" style="enable-background:new 0 0 92 92;" xml:space="preserve">
<style type="text/css">
	.st0{fill-rule:evenodd;clip-rule:evenodd;fill:#C3CECE;}
	.st1{fill:#C3CECE;}
</style>
<g>
	<g>
		<g>
			<path class="st0" d="M46,0C20.6,0,0,20.6,0,46c0,25.4,20.6,46,46,46c25.4,0,46-20.6,46-46C92,20.6,71.4,0,46,0z M46,90
				C21.7,90,2,70.3,2,46C2,21.7,21.7,2,46,2c24.3,0,44,19.7,44,44C90,70.3,70.3,90,46,90z"/>
		</g>
	</g>
	<g>
		<g>
			<path class="st1" d="M26.6,29.1h2.5v3.7h-2.5v24.5h2.5V61h-2.5v3.3h38.7V25.9H26.6V29.1z M46,27.9c9.6,0,17.3,7.7,17.3,17.2
				c-0.1,9.5-7.8,17.2-17.3,17.2c-9.5,0-17.3-7.7-17.3-17.2C28.7,35.6,36.4,27.9,46,27.9z M46,46.3c0.7,0,1.2-0.6,1.2-1.2
				s-0.6-1.2-1.2-1.2c-0.7,0-1.2,0.6-1.2,1.2S45.4,46.3,46,46.3z M31.9,46.3h2.4c0.5,0,0.9-0.3,1.1-0.8h1.3c0.1,2.2,1,4.2,2.3,5.7
				l-1,1c-0.4-0.2-0.9-0.1-1.3,0.2l-1.7,1.7c-0.4,0.5-0.4,1.2,0.1,1.7c0.4,0.4,1.2,0.4,1.7,0l1.7-1.7c0.4-0.4,0.4-0.9,0.2-1.3l1-1
				c1.6,1.4,3.6,2.3,5.8,2.4v1.3c-0.4,0.1-0.8,0.6-0.8,1.1v2.4c0,0.7,0.6,1.2,1.2,1.2c0.7,0,1.2-0.5,1.2-1.2v-2.4
				c0-0.5-0.3-0.9-0.8-1.1v-1.3c2.2-0.1,4.2-1,5.8-2.3l1,1c-0.2,0.4-0.1,0.9,0.2,1.3l1.7,1.7c0.5,0.4,1.2,0.4,1.7-0.1
				c0.4-0.4,0.4-1.2,0-1.7l-1.7-1.7c-0.4-0.4-0.9-0.4-1.3-0.2l-1-1c1.4-1.5,2.3-3.6,2.4-5.8h1.3c0.1,0.4,0.6,0.8,1.1,0.8h2.4
				c0.7-0.1,1.2-0.6,1.2-1.2s-0.5-1.2-1.2-1.2h-2.4c-0.5,0-0.9,0.3-1.1,0.8h-1.3c-0.1-2.2-1-4.2-2.4-5.8l0.9-0.9
				c0.4,0.2,0.9,0.1,1.3-0.2l1.7-1.7c0.5-0.6,0.5-1.4,0.1-1.8c-0.4-0.4-1.2-0.4-1.7,0L53.5,36c-0.4,0.4-0.4,0.9-0.2,1.3l-1,1
				c-1.6-1.4-3.6-2.3-5.8-2.4v-1.3c0.4-0.1,0.8-0.6,0.8-1.1v-2.4c-0.1-0.7-0.6-1.2-1.2-1.2c-0.7,0-1.2,0.5-1.2,1.2v2.4
				c0,0.5,0.3,0.9,0.8,1.1v1.3c-2.2,0.1-4.2,1-5.8,2.3l-1-1c0.2-0.4,0.1-0.9-0.2-1.3l-1.7-1.6c-0.4-0.5-1.2-0.5-1.7,0
				c-0.4,0.4-0.4,1.2,0,1.7l1.7,1.7c0.4,0.4,0.9,0.4,1.3,0.2l1,1c-1.4,1.5-2.3,3.6-2.4,5.8h-1.3c-0.1-0.4-0.6-0.8-1.1-0.8h-2.4
				c-0.7,0-1.2,0.6-1.2,1.2S31.2,46.3,31.9,46.3z M45.6,53.5c-2-0.1-3.8-0.9-5.2-2.2l2.4-2.4c0.8,0.6,1.7,1.1,2.8,1.2V53.5z
				 M46.5,53.5V50c1-0.1,2-0.5,2.7-1.1l2.4,2.4C50.2,52.6,48.4,53.4,46.5,53.5z M52.3,50.7l-2.4-2.4c0.7-0.8,1.1-1.7,1.2-2.8h3.4
				C54.3,47.5,53.5,49.3,52.3,50.7z M54.4,44.7H51c-0.1-1-0.5-2-1.1-2.7l2.4-2.4C53.6,40.9,54.3,42.7,54.4,44.7z M46.5,36.7
				c2,0.1,3.8,0.9,5.2,2.1l-2.5,2.4c-0.8-0.6-1.7-1-2.8-1.1V36.7z M46,41c2.3,0,4.1,1.8,4.1,4.1c0,2.2-1.8,4.1-4.1,4.1
				c-2.3,0-4.1-1.8-4.1-4.1C41.9,42.9,43.7,41,46,41z M45.6,36.7v3.4c-1,0.1-2,0.5-2.7,1.1l-2.4-2.4C41.8,37.6,43.6,36.8,45.6,36.7z
				 M39.8,39.5l2.4,2.4c-0.7,0.8-1.1,1.7-1.2,2.8h-3.4C37.7,42.7,38.5,40.9,39.8,39.5z M41.1,45.5c0.1,1,0.5,1.9,1.1,2.7l-2.4,2.4
				c-1.2-1.4-2-3.2-2.1-5.1H41.1z M66.1,20.7H25.9c-2.4,0-4.4,2-4.4,4.4v40c0,2.4,2,4.4,4.4,4.4h2c-0.1,0.1-0.1,0.3-0.1,0.4
				c0,0.7,0.6,1.3,1.3,1.3H33c0.7,0,1.3-0.6,1.3-1.3c0-0.1,0-0.3-0.1-0.4h23.9c-0.1,0.1-0.1,0.3-0.1,0.4c0,0.7,0.6,1.3,1.3,1.3h3.9
				c0.7,0,1.3-0.6,1.3-1.3c0-0.1,0-0.3-0.1-0.4h1.5c2.4,0,4.4-2,4.4-4.4V25.1C70.5,22.7,68.6,20.7,66.1,20.7z M66.2,66.8H25.9
				c-0.9,0-1.7-0.8-1.7-1.7v-40c0-0.9,0.8-1.7,1.7-1.7h40.2c0.9,0,1.7,0.8,1.7,1.7v40h0.1C67.9,66,67.1,66.8,66.2,66.8z"/>
		</g>
	</g>
</g>
</svg>
