<?xml version="1.0" encoding="utf-8"?>
<!-- Generator: Adobe Illustrator 19.2.1, SVG Export Plug-In . SVG Version: 6.00 Build 0)  -->
<svg version="1.1" id="Layer_1" xmlns="http://www.w3.org/2000/svg" xmlns:xlink="http://www.w3.org/1999/xlink" x="0px" y="0px"
	 viewBox="0 0 92 92" style="enable-background:new 0 0 92 92;" xml:space="preserve">
<style type="text/css">
	.st0{fill-rule:evenodd;clip-rule:evenodd;fill:#C3CECE;}
	.st1{fill:#C3CECE;}
</style>
<g>
	<g>
		<g>
			<path class="st0" d="M46,0C20.6,0,0,20.6,0,46c0,25.4,20.6,46,46,46c25.4,0,46-20.6,46-46C92,20.6,71.4,0,46,0z M46,90
				C21.7,90,2,70.3,2,46C2,21.7,21.7,2,46,2c24.3,0,44,19.7,44,44C90,70.3,70.3,90,46,90z"/>
		</g>
	</g>
	<g>
		<g>
			<path class="st1" d="M31.9,30.9c0.5,0,0.9-0.1,1.4-0.1C32.8,30.8,32.3,30.8,31.9,30.9z M56.6,51.1l-15.8-2.3l-7.9-1.2
				c-1.4-0.2-2.7,0.6-3.2,1.9c-0.1,0.2-0.1,0.4-0.1,0.6l-0.3,1.7c-0.3,1.5,0.6,2.9,2,3.3c0.2,0.1,0.4,0.1,0.5,0.1l10.6,1.5l13.2,2
				c1.7,0.3,3.2-0.9,3.4-2.5l0.1-0.6l0.1-0.3l0.1-1c0.1-0.3,0-0.8-0.1-1.1C58.8,52.2,57.8,51.3,56.6,51.1z M56.8,54.2l-0.3,1.7
				c-0.1,0.3-0.4,0.6-0.7,0.5l-2.1-0.3l-11.3-1.7l-10.3-1.5c-0.4-0.1-0.6-0.3-0.5-0.7l0.3-1.7c0.1-0.3,0.3-0.5,0.6-0.5
				c0.1,0,0.1,0,0.1,0l23.7,3.5c0,0,0.1,0.1,0.1,0.1C56.6,53.7,56.9,53.9,56.8,54.2z M73,36.6l-8.8-1.3l-0.6-8.4
				c-0.1-2.3-2.2-4-4.5-3.9l-39.8,2.6c-2.3,0.1-4.1,2.2-3.9,4.5l0.3,4.1l1.5,20.1c0.1,2.3,2.2,4,4.5,3.9l3.7-0.2l-0.1,0.3
				c-0.4,2.2,1.3,4.4,3.6,4.7l39.5,5.8c2.3,0.3,4.4-1.3,4.8-3.6l3.6-24C77,39.1,75.4,37,73,36.6z M17.7,30.1c-0.1-1,0.7-1.9,1.7-2
				l39.8-2.6c1.1-0.1,1.9,0.7,2,1.7l0.1,1.9c-0.1-0.1-15.6,1-28.1,1.9c-0.5,0-0.9,0.1-1.4,0.1c-7.7,0.5-13.9,1-14,1L17.7,30.1z
				 M25.6,55.6l-4.2,0.3c-1.1,0.1-1.9-0.7-2-1.7l-0.5-6.9l-0.1-1.8l-0.5-6.9c0.1,0,4.2-0.3,9.9-0.6l-0.1,0.4l-0.4,3.5l-5.3,0.3
				c-1.7,0.1-3,1.5-2.8,3.2l0.1,1.8c0.1,1.7,1.5,2.9,3.2,2.8l3.6-0.3L25.6,55.6z M26.7,47.3l-4.2,0.3c-0.3,0-0.6-0.2-0.6-0.6
				l-0.1-1.8c0-0.3,0.2-0.6,0.6-0.6l4.8-0.3L26.7,47.3z M71.9,56.2l-0.3,2l-1,6.8c-0.2,1-1.1,1.7-2.1,1.5l-39.5-5.9
				c-1-0.1-1.7-1-1.5-2l0.1-0.8l0.3-2.4l0.6-3.6l0.3-1.7l0.1-0.5l0.4-2.4l0.5-3l0.1-0.9c0.1,0,1.6,0.3,4.1,0.6c3.2,0.5,8,1.2,13,2
				c0.8,0.1,1.6,0.2,2.5,0.3c0.6,0.1,1.3,0.2,1.9,0.3c0.8,0.1,1.5,0.2,2.3,0.3c1.7,0.2,3.4,0.5,5,0.7c1.4,0.2,2.7,0.3,4,0.6
				c0.8,0.1,1.7,0.2,2.5,0.3c4.6,0.7,7.7,1.1,7.8,1.1L71.9,56.2z M74.2,41L74,42.9c-0.1,0-3.9-0.6-9.3-1.4c-0.8-0.1-1.6-0.2-2.6-0.3
				c-0.8-0.1-1.5-0.2-2.4-0.3c-0.6-0.1-1.2-0.2-1.8-0.3c-1.1-0.2-2-0.3-3.1-0.5c-6.6-1-13.5-2-18.2-2.6c-3.4-0.5-5.8-0.8-5.8-0.8
				l0.3-1.9c0.2-1,1.1-1.7,2.1-1.5L54,36.3l7.9,1.1l2.5,0.3l8.3,1.2C73.7,39,74.4,40,74.2,41z M62.6,52.3c-0.5,0.1-1,0.5-1.3,0.8
				c-0.4,0.4-0.6,1-0.7,1.5l-0.1,1l-0.1,0.8c-0.2,1.7,0.9,3.2,2.5,3.4l3.8,0.6c1.7,0.3,3.2-0.9,3.4-2.5l0.3-1.7v-0.2
				c0.1-1.6-1.1-3-2.6-3.2l-2.6-0.3L64,52.2C63.5,52.1,63,52.1,62.6,52.3z M67.4,55.1c0.3,0.1,0.6,0.3,0.5,0.7l-0.3,1.7
				c-0.1,0.3-0.4,0.6-0.7,0.5l-3.7-0.5c-0.3-0.1-0.6-0.3-0.5-0.7l0.2-1.7V55c0.1-0.3,0.4-0.6,0.7-0.5h0.2L67.4,55.1z"/>
		</g>
	</g>
</g>
</svg>
