<?xml version="1.0" encoding="utf-8"?>
<!-- Generator: Adobe Illustrator 19.1.1, SVG Export Plug-In . SVG Version: 6.00 Build 0)  -->
<svg version="1.1" id="Layer_1" xmlns="http://www.w3.org/2000/svg" xmlns:xlink="http://www.w3.org/1999/xlink" x="0px" y="0px"
	 viewBox="0 0 20 20" style="enable-background:new 0 0 20 20;" xml:space="preserve">
<path d="M20,9.4c0-0.2-0.1-0.3-0.2-0.5c-0.1-0.1-0.3-0.2-0.4-0.3l-1.4-0.2c-0.4-0.1-0.7-0.3-0.8-0.7l-0.5-1.3
	c-0.2-0.4-0.2-0.7,0.1-1.1l0.9-1.1c0.2-0.3,0.2-0.7,0-1l-0.9-0.9c-0.3-0.3-0.6-0.3-0.9,0l-1.1,0.8c-0.3,0.3-0.7,0.3-1.1,0.1
	l-1.3-0.5c-0.2-0.1-0.3-0.2-0.4-0.3c-0.1-0.2-0.2-0.3-0.2-0.5l-0.2-1.4c0-0.2-0.1-0.3-0.3-0.4C11,0.1,10.8,0,10.6,0
	c-0.1,0-0.3,0-0.6,0L9.4,0C9.2,0,9,0.1,8.9,0.3C8.7,0.4,8.7,0.5,8.6,0.7L8.4,2.1C8.4,2.5,8.2,2.8,7.8,2.9L6.5,3.4
	C6.2,3.6,5.8,3.5,5.5,3.3L4.4,2.5c-0.3-0.2-0.7-0.2-1,0L2.5,3.4c-0.3,0.3-0.3,0.6,0,1l0.8,1.1c0.3,0.3,0.3,0.7,0.1,1.1L2.9,7.8
	C2.8,7.9,2.7,8.1,2.6,8.2C2.4,8.4,2.2,8.4,2.1,8.4L0.7,8.6c-0.2,0-0.3,0.1-0.4,0.3C0.1,9,0,9.2,0,9.4C0,9.5,0,9.7,0,10l0,0.6
	c0,0.2,0.1,0.3,0.2,0.5c0.1,0.1,0.3,0.2,0.4,0.3l1.4,0.2c0.2,0,0.3,0.1,0.5,0.2c0.2,0.1,0.3,0.3,0.3,0.4l0.5,1.3
	c0.2,0.4,0.1,0.7-0.1,1.1l-0.8,1.1c-0.2,0.3-0.3,0.6-0.1,0.8c0,0,0.1,0.1,0.1,0.1c0,0.1,0.1,0.1,0.1,0.2c0.1,0.1,0.1,0.1,0.2,0.2
	C2.8,17,2.9,17,2.9,17.1C3,17.1,3,17.2,3.1,17.2c0.1,0.1,0.1,0.1,0.2,0.1c0.1,0.1,0.3,0.2,0.5,0.2c0.2,0.1,0.4,0,0.6,0l1.1-0.8
	c0.3-0.3,0.7-0.3,1.1-0.1l1.3,0.5c0.2,0.1,0.3,0.2,0.4,0.3c0.1,0.2,0.2,0.3,0.2,0.5l0.2,1.4c0,0.2,0.1,0.3,0.3,0.4
	C9,19.9,9.2,20,9.4,20c0.1,0,0.3,0,0.6,0l0.6,0c0.2,0,0.3-0.1,0.5-0.2c0.1-0.1,0.2-0.3,0.3-0.4l0.2-1.4c0-0.2,0.1-0.3,0.2-0.5
	c0.1-0.2,0.3-0.3,0.4-0.3l1.3-0.5c0.4-0.2,0.7-0.1,1.1,0.1l1.1,0.8c0.3,0.2,0.7,0.2,1,0l0.9-0.9c0.3-0.3,0.3-0.6,0-1l-0.9-1.1
	c-0.2-0.3-0.3-0.7-0.1-1.1l0.5-1.3c0.1-0.4,0.4-0.6,0.8-0.7l1.4-0.2c0.2,0,0.3-0.1,0.4-0.3c0.1-0.1,0.2-0.3,0.2-0.5
	c0-0.1,0-0.3,0-0.6L20,9.4z M10,14.3c-2.4,0-4.3-1.9-4.3-4.3c0-2.4,1.9-4.3,4.3-4.3c2.4,0,4.3,1.9,4.3,4.3
	C14.3,12.4,12.4,14.3,10,14.3z"/>
</svg>
