<?xml version="1.0" encoding="utf-8"?>
<svg xmlns="http://www.w3.org/2000/svg"
	xmlns:xlink="http://www.w3.org/1999/xlink"
	width="33px" height="33px" viewBox="0 0 33 33">
<clipPath id="clip0"><circle cx="16.50" cy="16.50" r="16.50"/></clipPath><circle cx="16.50" cy="16.50" r="16.50" fill="none" stroke="rgb(21,37,47)" stroke-width="2.00px" clip-path="url(#clip0)"/><path fillRule="evenodd" d="M 24.65 21.35C 24.65 21.35 16.65 13.35 16.65 13.35 16.65 13.35 17.35 12.65 17.35 12.65 17.35 12.65 25.35 20.65 25.35 20.65 25.35 20.65 24.65 21.35 24.65 21.35ZM 7.99 20.3C 7.99 20.3 16.3 11.99 16.3 11.99 16.3 11.99 17.01 12.7 17.01 12.7 17.01 12.7 8.7 21.01 8.7 21.01 8.7 21.01 7.99 20.3 7.99 20.3Z" fill="rgb(21,37,47)"/></svg>